<svg width="40" height="29" viewBox="0 0 40 29" fill="none" xmlns="http://www.w3.org/2000/svg">
<path fill-rule="evenodd" clip-rule="evenodd" d="M4.01154 14.0482C4.01154 7.76811 11.108 2.67323 19.8553 2.67323C28.6026 2.67323 35.699 7.76811 35.699 14.0482C35.699 20.3284 28.6026 25.4232 19.8553 25.4232C11.108 25.4232 4.01154 20.3284 4.01154 14.0482ZM19.8553 4.42323C12.4542 4.42323 6.44904 8.73461 6.44904 14.0482C6.44904 19.3619 12.4542 23.6732 19.8553 23.6732C27.2564 23.6732 33.2615 19.3619 33.2615 14.0482C33.2615 8.73461 27.2564 4.42323 19.8553 4.42323Z" fill="white"/>
<path fill-rule="evenodd" clip-rule="evenodd" d="M16.199 9.67323C16.8721 9.67323 17.4178 10.065 17.4178 10.5482V17.5482C17.4178 18.0315 16.8721 18.4232 16.199 18.4232C15.5259 18.4232 14.9803 18.0315 14.9803 17.5482V10.5482C14.9803 10.065 15.5259 9.67323 16.199 9.67323Z" fill="white"/>
<path fill-rule="evenodd" clip-rule="evenodd" d="M23.5115 9.67323C24.1846 9.67323 24.7303 10.065 24.7303 10.5482V17.5482C24.7303 18.0315 24.1846 18.4232 23.5115 18.4232C22.8384 18.4232 22.2928 18.0315 22.2928 17.5482V10.5482C22.2928 10.065 22.8384 9.67323 23.5115 9.67323Z" fill="white"/>
</svg>
